<svg width="154" height="19" viewBox="0 0 154 19" fill="none" xmlns="http://www.w3.org/2000/svg">
<path d="M19.748 0.647999V18H16.904V6.792C16.904 6.344 16.928 5.86 16.976 5.34L11.732 15.192C11.484 15.664 11.104 15.9 10.592 15.9H10.136C9.624 15.9 9.244 15.664 8.996 15.192L3.692 5.304C3.716 5.568 3.736 5.828 3.752 6.084C3.768 6.34 3.776 6.576 3.776 6.792V18H0.932V0.647999H3.368C3.512 0.647999 3.636 0.651999 3.74 0.659999C3.844 0.667999 3.936 0.687999 4.016 0.719999C4.104 0.751999 4.18 0.803999 4.244 0.875999C4.316 0.947999 4.384 1.044 4.448 1.164L9.644 10.8C9.78 11.056 9.904 11.32 10.016 11.592C10.136 11.864 10.252 12.144 10.364 12.432C10.476 12.136 10.592 11.852 10.712 11.58C10.832 11.3 10.96 11.032 11.096 10.776L16.22 1.164C16.284 1.044 16.352 0.947999 16.424 0.875999C16.496 0.803999 16.572 0.751999 16.652 0.719999C16.74 0.687999 16.836 0.667999 16.94 0.659999C17.044 0.651999 17.168 0.647999 17.312 0.647999H19.748ZM29.3508 12.744C28.4948 12.784 27.7748 12.86 27.1908 12.972C26.6068 13.076 26.1388 13.212 25.7868 13.38C25.4348 13.548 25.1828 13.744 25.0308 13.968C24.8788 14.192 24.8028 14.436 24.8028 14.7C24.8028 15.22 24.9548 15.592 25.2588 15.816C25.5708 16.04 25.9748 16.152 26.4708 16.152C27.0788 16.152 27.6028 16.044 28.0428 15.828C28.4908 15.604 28.9268 15.268 29.3508 14.82V12.744ZM22.5588 7.404C23.9748 6.108 25.6788 5.46 27.6708 5.46C28.3908 5.46 29.0348 5.58 29.6028 5.82C30.1708 6.052 30.6508 6.38 31.0428 6.804C31.4348 7.22 31.7308 7.72 31.9308 8.304C32.1388 8.888 32.2428 9.528 32.2428 10.224V18H30.8988C30.6188 18 30.4028 17.96 30.2508 17.88C30.0988 17.792 29.9788 17.62 29.8908 17.364L29.6268 16.476C29.3148 16.756 29.0108 17.004 28.7148 17.22C28.4188 17.428 28.1108 17.604 27.7908 17.748C27.4708 17.892 27.1268 18 26.7588 18.072C26.3988 18.152 25.9988 18.192 25.5588 18.192C25.0388 18.192 24.5588 18.124 24.1188 17.988C23.6788 17.844 23.2988 17.632 22.9788 17.352C22.6588 17.072 22.4108 16.724 22.2348 16.308C22.0588 15.892 21.9708 15.408 21.9708 14.856C21.9708 14.544 22.0228 14.236 22.1268 13.932C22.2308 13.62 22.3988 13.324 22.6308 13.044C22.8708 12.764 23.1788 12.5 23.5548 12.252C23.9308 12.004 24.3908 11.788 24.9348 11.604C25.4868 11.42 26.1268 11.272 26.8548 11.16C27.5828 11.04 28.4148 10.968 29.3508 10.944V10.224C29.3508 9.4 29.1748 8.792 28.8228 8.4C28.4708 8 27.9628 7.8 27.2988 7.8C26.8188 7.8 26.4188 7.856 26.0988 7.968C25.7868 8.08 25.5108 8.208 25.2708 8.352C25.0308 8.488 24.8108 8.612 24.6108 8.724C24.4188 8.836 24.2028 8.892 23.9628 8.892C23.7548 8.892 23.5788 8.84 23.4348 8.736C23.2908 8.624 23.1748 8.496 23.0868 8.352L22.5588 7.404ZM38.9743 18.192C37.9023 18.192 37.0783 17.892 36.5023 17.292C35.9343 16.684 35.6503 15.848 35.6503 14.784V7.908H34.3903C34.2303 7.908 34.0943 7.856 33.9823 7.752C33.8703 7.648 33.8143 7.492 33.8143 7.284V6.108L35.7943 5.784L36.4183 2.424C36.4583 2.264 36.5343 2.14 36.6463 2.052C36.7583 1.964 36.9023 1.92 37.0783 1.92H38.6143V5.796H43.7383L44.3743 2.424C44.4143 2.264 44.4863 2.14 44.5903 2.052C44.7023 1.964 44.8503 1.92 45.0343 1.92H46.5583V5.796H49.8463V7.908H46.5583V14.58C46.5583 14.964 46.6543 15.264 46.8463 15.48C47.0383 15.696 47.2983 15.804 47.6263 15.804C47.8023 15.804 47.9543 15.784 48.0823 15.744C48.2103 15.696 48.3183 15.648 48.4062 15.6C48.5023 15.552 48.5863 15.508 48.6583 15.468C48.7303 15.42 48.8023 15.396 48.8743 15.396C48.9623 15.396 49.0343 15.42 49.0903 15.468C49.1463 15.508 49.2063 15.572 49.2703 15.66L50.1583 17.1C49.7263 17.46 49.2303 17.732 48.6703 17.916C48.1103 18.1 47.5303 18.192 46.9303 18.192C45.8583 18.192 45.0343 17.892 44.4583 17.292C43.8823 16.684 43.5943 15.848 43.5943 14.784V7.908H38.6143V14.58C38.6143 14.964 38.7063 15.264 38.8903 15.48C39.0823 15.696 39.3423 15.804 39.6703 15.804C39.8543 15.804 40.0063 15.784 40.1263 15.744C40.2543 15.696 40.3623 15.648 40.4503 15.6C40.5463 15.552 40.6303 15.508 40.7023 15.468C40.7743 15.42 40.8463 15.396 40.9183 15.396C41.0063 15.396 41.0783 15.42 41.1343 15.468C41.1903 15.508 41.2503 15.572 41.3143 15.66L42.2023 17.1C41.7703 17.46 41.2743 17.732 40.7143 17.916C40.1543 18.1 39.5743 18.192 38.9743 18.192ZM67.2892 3.804C67.1932 3.972 67.0892 4.096 66.9772 4.176C66.8732 4.248 66.7412 4.284 66.5812 4.284C66.4132 4.284 66.2292 4.224 66.0292 4.104C65.8372 3.976 65.6052 3.836 65.3332 3.684C65.0612 3.532 64.7412 3.396 64.3732 3.276C64.0132 3.148 63.5852 3.084 63.0892 3.084C62.6412 3.084 62.2492 3.14 61.9132 3.252C61.5772 3.356 61.2932 3.504 61.0612 3.696C60.8372 3.888 60.6692 4.12 60.5572 4.392C60.4452 4.656 60.3892 4.948 60.3892 5.268C60.3892 5.676 60.5012 6.016 60.7252 6.288C60.9572 6.56 61.2612 6.792 61.6372 6.984C62.0132 7.176 62.4412 7.348 62.9212 7.5C63.4012 7.652 63.8932 7.816 64.3972 7.992C64.9012 8.16 65.3932 8.36 65.8732 8.592C66.3532 8.816 66.7812 9.104 67.1572 9.456C67.5332 9.8 67.8332 10.224 68.0572 10.728C68.2892 11.232 68.4052 11.844 68.4052 12.564C68.4052 13.348 68.2692 14.084 67.9972 14.772C67.7332 15.452 67.3412 16.048 66.8212 16.56C66.3092 17.064 65.6812 17.464 64.9372 17.76C64.1932 18.048 63.3412 18.192 62.3812 18.192C61.8292 18.192 61.2852 18.136 60.7492 18.024C60.2132 17.92 59.6972 17.768 59.2012 17.568C58.7132 17.368 58.2532 17.128 57.8212 16.848C57.3892 16.568 57.0052 16.256 56.6692 15.912L57.6172 14.364C57.6972 14.252 57.8012 14.16 57.9292 14.088C58.0572 14.008 58.1932 13.968 58.3372 13.968C58.5372 13.968 58.7532 14.052 58.9852 14.22C59.2172 14.38 59.4932 14.56 59.8132 14.76C60.1332 14.96 60.5052 15.144 60.9292 15.312C61.3612 15.472 61.8772 15.552 62.4772 15.552C63.3972 15.552 64.1092 15.336 64.6132 14.904C65.1172 14.464 65.3692 13.836 65.3692 13.02C65.3692 12.564 65.2532 12.192 65.0212 11.904C64.7972 11.616 64.4972 11.376 64.1212 11.184C63.7452 10.984 63.3172 10.816 62.8372 10.68C62.3572 10.544 61.8692 10.396 61.3732 10.236C60.8772 10.076 60.3892 9.884 59.9092 9.66C59.4292 9.436 59.0012 9.144 58.6252 8.784C58.2492 8.424 57.9452 7.976 57.7132 7.44C57.4892 6.896 57.3772 6.228 57.3772 5.436C57.3772 4.804 57.5012 4.188 57.7492 3.588C58.0052 2.988 58.3732 2.456 58.8532 1.992C59.3332 1.528 59.9252 1.156 60.6292 0.875999C61.3332 0.596 62.1412 0.456 63.0532 0.456C64.0772 0.456 65.0212 0.616 65.8852 0.935999C66.7492 1.256 67.4852 1.704 68.0932 2.28L67.2892 3.804ZM77.093 12.744C76.237 12.784 75.517 12.86 74.933 12.972C74.349 13.076 73.881 13.212 73.529 13.38C73.177 13.548 72.925 13.744 72.773 13.968C72.621 14.192 72.545 14.436 72.545 14.7C72.545 15.22 72.697 15.592 73.001 15.816C73.313 16.04 73.717 16.152 74.213 16.152C74.821 16.152 75.345 16.044 75.785 15.828C76.233 15.604 76.669 15.268 77.093 14.82V12.744ZM70.301 7.404C71.717 6.108 73.421 5.46 75.413 5.46C76.133 5.46 76.777 5.58 77.345 5.82C77.913 6.052 78.393 6.38 78.785 6.804C79.177 7.22 79.473 7.72 79.673 8.304C79.881 8.888 79.985 9.528 79.985 10.224V18H78.641C78.361 18 78.145 17.96 77.993 17.88C77.841 17.792 77.721 17.62 77.633 17.364L77.369 16.476C77.057 16.756 76.753 17.004 76.457 17.22C76.161 17.428 75.853 17.604 75.533 17.748C75.213 17.892 74.869 18 74.501 18.072C74.141 18.152 73.741 18.192 73.301 18.192C72.781 18.192 72.301 18.124 71.861 17.988C71.421 17.844 71.041 17.632 70.721 17.352C70.401 17.072 70.153 16.724 69.977 16.308C69.801 15.892 69.713 15.408 69.713 14.856C69.713 14.544 69.765 14.236 69.869 13.932C69.973 13.62 70.141 13.324 70.373 13.044C70.613 12.764 70.921 12.5 71.297 12.252C71.673 12.004 72.133 11.788 72.677 11.604C73.229 11.42 73.869 11.272 74.597 11.16C75.325 11.04 76.157 10.968 77.093 10.944V10.224C77.093 9.4 76.917 8.792 76.565 8.4C76.213 8 75.705 7.8 75.041 7.8C74.561 7.8 74.161 7.856 73.841 7.968C73.529 8.08 73.253 8.208 73.013 8.352C72.773 8.488 72.553 8.612 72.353 8.724C72.161 8.836 71.945 8.892 71.705 8.892C71.497 8.892 71.321 8.84 71.177 8.736C71.033 8.624 70.917 8.496 70.829 8.352L70.301 7.404ZM93.3845 5.688V18H91.5725C91.1805 18 90.9325 17.82 90.8285 17.46L90.6245 16.476C90.1205 16.988 89.5645 17.404 88.9565 17.724C88.3485 18.036 87.6325 18.192 86.8085 18.192C86.1365 18.192 85.5405 18.08 85.0205 17.856C84.5085 17.624 84.0765 17.3 83.7245 16.884C83.3725 16.468 83.1045 15.976 82.9205 15.408C82.7445 14.832 82.6565 14.2 82.6565 13.512V5.688H85.6205V13.512C85.6205 14.264 85.7925 14.848 86.1365 15.264C86.4885 15.672 87.0125 15.876 87.7085 15.876C88.2205 15.876 88.7005 15.764 89.1485 15.54C89.5965 15.308 90.0205 14.992 90.4205 14.592V5.688H93.3845ZM99.0954 7.2C99.3434 6.952 99.6034 6.724 99.8754 6.516C100.155 6.3 100.447 6.12 100.751 5.976C101.063 5.824 101.395 5.708 101.747 5.628C102.099 5.54 102.483 5.496 102.899 5.496C103.571 5.496 104.167 5.612 104.687 5.844C105.207 6.068 105.639 6.388 105.983 6.804C106.335 7.212 106.599 7.704 106.775 8.28C106.959 8.848 107.051 9.476 107.051 10.164V18H104.087V10.164C104.087 9.412 103.915 8.832 103.571 8.424C103.227 8.008 102.703 7.8 101.999 7.8C101.487 7.8 101.007 7.916 100.559 8.148C100.111 8.38 99.6874 8.696 99.2874 9.096V18H96.3234V5.688H98.1354C98.5194 5.688 98.7714 5.868 98.8914 6.228L99.0954 7.2ZM117.598 8.832C117.262 8.424 116.894 8.136 116.494 7.968C116.102 7.8 115.678 7.716 115.222 7.716C114.774 7.716 114.37 7.8 114.01 7.968C113.65 8.136 113.342 8.392 113.086 8.736C112.83 9.072 112.634 9.504 112.498 10.032C112.362 10.552 112.294 11.168 112.294 11.88C112.294 12.6 112.35 13.212 112.462 13.716C112.582 14.212 112.75 14.62 112.966 14.94C113.182 15.252 113.446 15.48 113.758 15.624C114.07 15.76 114.418 15.828 114.802 15.828C115.418 15.828 115.942 15.7 116.374 15.444C116.806 15.188 117.214 14.824 117.598 14.352V8.832ZM120.562 0.167999V18H118.75C118.358 18 118.11 17.82 118.006 17.46L117.754 16.272C117.258 16.84 116.686 17.3 116.038 17.652C115.398 18.004 114.65 18.18 113.794 18.18C113.122 18.18 112.506 18.04 111.946 17.76C111.386 17.48 110.902 17.076 110.494 16.548C110.094 16.012 109.782 15.352 109.558 14.568C109.342 13.784 109.234 12.888 109.234 11.88C109.234 10.968 109.358 10.12 109.606 9.336C109.854 8.552 110.21 7.872 110.674 7.296C111.138 6.72 111.694 6.272 112.342 5.952C112.99 5.624 113.718 5.46 114.526 5.46C115.214 5.46 115.802 5.568 116.29 5.784C116.778 6 117.214 6.292 117.598 6.66V0.167999H120.562ZM131.419 10.428C131.419 10.044 131.363 9.684 131.251 9.348C131.147 9.004 130.987 8.704 130.771 8.448C130.555 8.192 130.279 7.992 129.943 7.848C129.615 7.696 129.231 7.62 128.791 7.62C127.935 7.62 127.259 7.864 126.763 8.352C126.275 8.84 125.963 9.532 125.827 10.428H131.419ZM125.767 12.216C125.815 12.848 125.927 13.396 126.103 13.86C126.279 14.316 126.511 14.696 126.799 15C127.087 15.296 127.427 15.52 127.819 15.672C128.219 15.816 128.659 15.888 129.139 15.888C129.619 15.888 130.031 15.832 130.375 15.72C130.727 15.608 131.031 15.484 131.287 15.348C131.551 15.212 131.779 15.088 131.971 14.976C132.171 14.864 132.363 14.808 132.547 14.808C132.795 14.808 132.979 14.9 133.099 15.084L133.951 16.164C133.623 16.548 133.255 16.872 132.847 17.136C132.439 17.392 132.011 17.6 131.563 17.76C131.123 17.912 130.671 18.02 130.207 18.084C129.751 18.148 129.307 18.18 128.875 18.18C128.019 18.18 127.223 18.04 126.487 17.76C125.751 17.472 125.111 17.052 124.567 16.5C124.023 15.94 123.595 15.252 123.283 14.436C122.971 13.612 122.815 12.66 122.815 11.58C122.815 10.74 122.951 9.952 123.223 9.216C123.495 8.472 123.883 7.828 124.387 7.284C124.899 6.732 125.519 6.296 126.247 5.976C126.983 5.656 127.811 5.496 128.731 5.496C129.507 5.496 130.223 5.62 130.879 5.868C131.535 6.116 132.099 6.48 132.571 6.96C133.043 7.432 133.411 8.016 133.675 8.712C133.947 9.4 134.083 10.188 134.083 11.076C134.083 11.524 134.035 11.828 133.939 11.988C133.843 12.14 133.659 12.216 133.387 12.216H125.767ZM139.104 7.824C139.488 7.088 139.944 6.512 140.472 6.096C141 5.672 141.624 5.46 142.344 5.46C142.912 5.46 143.368 5.584 143.712 5.832L143.52 8.052C143.48 8.196 143.42 8.3 143.34 8.364C143.268 8.42 143.168 8.448 143.04 8.448C142.92 8.448 142.74 8.428 142.5 8.388C142.268 8.348 142.04 8.328 141.816 8.328C141.488 8.328 141.196 8.376 140.94 8.472C140.684 8.568 140.452 8.708 140.244 8.892C140.044 9.068 139.864 9.284 139.704 9.54C139.552 9.796 139.408 10.088 139.272 10.416V18H136.308V5.688H138.048C138.352 5.688 138.564 5.744 138.684 5.856C138.804 5.96 138.884 6.152 138.924 6.432L139.104 7.824ZM152.726 8.088C152.646 8.216 152.562 8.308 152.474 8.364C152.386 8.412 152.274 8.436 152.138 8.436C151.994 8.436 151.838 8.396 151.67 8.316C151.51 8.236 151.322 8.148 151.106 8.052C150.89 7.948 150.642 7.856 150.362 7.776C150.09 7.696 149.766 7.656 149.39 7.656C148.806 7.656 148.346 7.78 148.01 8.028C147.682 8.276 147.518 8.6 147.518 9C147.518 9.264 147.602 9.488 147.77 9.672C147.946 9.848 148.174 10.004 148.454 10.14C148.742 10.276 149.066 10.4 149.426 10.512C149.786 10.616 150.15 10.732 150.518 10.86C150.894 10.988 151.262 11.136 151.622 11.304C151.982 11.464 152.302 11.672 152.582 11.928C152.87 12.176 153.098 12.476 153.266 12.828C153.442 13.18 153.53 13.604 153.53 14.1C153.53 14.692 153.422 15.24 153.206 15.744C152.998 16.24 152.686 16.672 152.27 17.04C151.854 17.4 151.338 17.684 150.722 17.892C150.114 18.092 149.41 18.192 148.61 18.192C148.186 18.192 147.77 18.152 147.362 18.072C146.962 18 146.574 17.896 146.198 17.76C145.83 17.624 145.486 17.464 145.166 17.28C144.854 17.096 144.578 16.896 144.338 16.68L145.022 15.552C145.11 15.416 145.214 15.312 145.334 15.24C145.454 15.168 145.606 15.132 145.79 15.132C145.974 15.132 146.146 15.184 146.306 15.288C146.474 15.392 146.666 15.504 146.882 15.624C147.098 15.744 147.35 15.856 147.638 15.96C147.934 16.064 148.306 16.116 148.754 16.116C149.106 16.116 149.406 16.076 149.654 15.996C149.91 15.908 150.118 15.796 150.278 15.66C150.446 15.524 150.566 15.368 150.638 15.192C150.718 15.008 150.758 14.82 150.758 14.628C150.758 14.34 150.67 14.104 150.494 13.92C150.326 13.736 150.098 13.576 149.81 13.44C149.53 13.304 149.206 13.184 148.838 13.08C148.478 12.968 148.106 12.848 147.722 12.72C147.346 12.592 146.974 12.444 146.606 12.276C146.246 12.1 145.922 11.88 145.634 11.616C145.354 11.352 145.126 11.028 144.95 10.644C144.782 10.26 144.698 9.796 144.698 9.252C144.698 8.748 144.798 8.268 144.998 7.812C145.198 7.356 145.49 6.96 145.874 6.624C146.266 6.28 146.75 6.008 147.326 5.808C147.91 5.6 148.582 5.496 149.342 5.496C150.19 5.496 150.962 5.636 151.658 5.916C152.354 6.196 152.934 6.564 153.398 7.02L152.726 8.088Z" fill="#7645D9"/>
</svg>
